<svg fill="none" height="15" viewBox="0 0 15 15" width="15" xmlns="http://www.w3.org/2000/svg"><g fill="#000"><path d="m5 8.5c0-.27614.22386-.5.5-.5s.5.22386.5.5-.22386.5-.5.5-.5-.22386-.5-.5z"/><path d="m9 8.5c0-.27614.22386-.5.5-.5s.5.22386.5.5-.22386.5-.5.5-.5-.22386-.5-.5z"/><path clip-rule="evenodd" d="m8 2.02242c2.8033.25262 5 2.60856 5 5.47758v6c0 .8284-.6716 1.5-1.5 1.5h-8c-.82843 0-1.5-.6716-1.5-1.5v-6c0-2.86902 2.19675-5.22496 5-5.47758v-2.02242h1zm-2.5 4.97758c-.82843 0-1.5.67157-1.5 1.5s.67157 1.5 1.5 1.5 1.5-.67157 1.5-1.5-.67157-1.5-1.5-1.5zm4 0c-.82843 0-1.5.67157-1.5 1.5s.67157 1.5 1.5 1.5c.8284 0 1.5-.67157 1.5-1.5s-.6716-1.5-1.5-1.5zm1.5 5h-7v-1h7z" fill-rule="evenodd"/><path d="m0 8v4h1v-4z"/><path d="m15 8h-1v4h1z"/></g></svg>